<svg xmlns="http://www.w3.org/2000/svg" viewBox="0 0 64 64" width="64" height="64">
  <rect width="64" height="64" rx="14" fill="#2563eb"/>
  <g transform="translate(12 12)" fill="#ffffff">
    <path d="M20 0a20 20 0 1 0 0 40 20 20 0 0 0 0-40zM18 35.86C10.1 34.88 4 28.16 4 20c0-1.24.16-2.42.42-3.58L18 30v1c0 2.2 1.8 4 4 4v0.86zM33.8 30.78c-.52-1.62-2-2.78-3.8-2.78h-2v-6c0-1.1-.9-2-2-2H16v-4h4c1.1 0 2-.9 2-2v-4h4c2.2 0 4-1.8 4-4v-.82C35.86 2.56 40 8.3 40 15c0 4.16-1.6 7.94-4.2 10.78z"/>
  </g>
</svg>
